<?xml version="1.0"?>
<svg xmlns="http://www.w3.org/2000/svg" xmlns:xlink="http://www.w3.org/1999/xlink" xmlns:svgjs="http://svgjs.com/svgjs" version="1.1" width="512" height="512" x="0" y="0" viewBox="0 0 256 256" style="enable-background:new 0 0 512 512" xml:space="preserve" class=""><g><g xmlns="http://www.w3.org/2000/svg"><g><path d="m59.865 206.173 25.685-25.685c5.164-5.164 12.168-8.065 19.471-8.065h49.424c6.121 0 11.083 4.962 11.083 11.083 0 6.121-4.962 11.083-11.083 11.083h-20.304c-3.229 0-5.847 2.618-5.847 5.847 0 3.229 2.618 5.847 5.847 5.847h43.203c2.921 0 5.723-1.16 7.788-3.226l23.727-23.727c4.501-4.501 11.799-4.501 16.301 0 4.501 4.501 4.501 11.799 0 16.301l-36.393 36.393c-2.066 2.066-4.867 3.226-7.788 3.226h-69.45l-11.293 11.293z" fill="#ffa375" data-original="#ff9f70" style="" class=""/></g><g><g><path d="m97.403 180.488c5.164-5.164 12.168-8.065 19.471-8.065h-11.854c-7.303 0-14.307 2.901-19.471 8.065l-25.685 25.684 5.927 5.927z" fill="#ffbd8e" data-original="#ffbd8e" style=""/></g></g><g><g><path d="m40.023 69.981h-30.096c-3.274 0-5.927-2.654-5.927-5.927 0-3.274 2.653-5.927 5.927-5.927h30.096c3.274 0 5.927 2.653 5.927 5.927 0 3.273-2.653 5.927-5.927 5.927z" fill="#98dfdb" data-original="#f4efed" style="" class=""/></g></g><g><g><path d="m40.023 93.83h-18.243c-3.274 0-5.927-2.653-5.927-5.927s2.653-5.927 5.927-5.927h18.242c3.274 0 5.927 2.653 5.927 5.927.001 3.274-2.652 5.927-5.926 5.927z" fill="#98dfdb" data-original="#f4efed" style="" class=""/></g></g><g><g><path d="m40.023 117.679h-30.096c-3.274 0-5.927-2.653-5.927-5.927s2.653-5.927 5.927-5.927h30.096c3.274 0 5.927 2.653 5.927 5.927s-2.653 5.927-5.927 5.927z" fill="#98dfdb" data-original="#f4efed" style="" class=""/></g></g><g><g><path d="m225.159 179.331c-3.65-3.65-9.139-4.339-13.485-2.07 1.014.529 1.965 1.218 2.816 2.069 4.501 4.501 4.501 11.799 0 16.301l-36.392 36.393c-2.066 2.066-4.867 3.226-7.788 3.226h10.668c2.921 0 5.723-1.16 7.788-3.226l36.392-36.393c4.502-4.501 4.502-11.8.001-16.3z" fill="#e18152" data-original="#e18152" style="" class=""/></g></g><g><path d="m100.234 248.543c-.512 0-1.023-.195-1.414-.586l-40.369-40.37c-.781-.781-.781-2.047 0-2.828l25.684-25.685c5.579-5.579 12.996-8.651 20.885-8.651h49.424c7.214 0 13.083 5.869 13.083 13.083s-5.869 13.083-13.083 13.083h-20.304c-2.121 0-3.847 1.726-3.847 3.847 0 2.122 1.726 3.848 3.847 3.848h43.203c2.408 0 4.672-.938 6.374-2.641l23.727-23.727c5.273-5.273 13.854-5.273 19.129 0 5.273 5.274 5.273 13.855 0 19.129l-36.393 36.393c-2.458 2.459-5.727 3.813-9.203 3.813h-68.621l-10.708 10.707c-.39.39-.902.585-1.414.585zm-37.541-42.37 37.541 37.542 9.88-9.879c.375-.375.884-.586 1.414-.586h69.449c2.408 0 4.672-.938 6.375-2.641l36.393-36.393c3.714-3.714 3.714-9.758 0-13.473-3.717-3.714-9.76-3.714-13.473 0l-23.727 23.727c-2.457 2.458-5.726 3.813-9.202 3.813h-43.203c-4.327 0-7.847-3.52-7.847-7.847s3.52-7.848 7.847-7.848h20.304c5.009 0 9.083-4.074 9.083-9.083s-4.074-9.083-9.083-9.083h-49.424c-6.82 0-13.233 2.656-18.057 7.479z" fill="#41b3a1" data-original="#690589" style="" class=""/></g><g><path d="m238.243 160.57h-188.087c-7.598 0-13.757-6.159-13.757-13.757 0-7.598 6.159-13.757 13.757-13.757h188.087c7.598 0 13.757 6.159 13.757 13.757 0 7.597-6.159 13.757-13.757 13.757z" fill="#98dfdb" data-original="#f4efed" style="" class=""/></g><g><path d="m155.283 42.763h-23.57v-21.521c0-6.509 5.276-11.785 11.785-11.785 6.509 0 11.785 5.276 11.785 11.785z" fill="#fcc24c" data-original="#fcc24c" style="" class=""/></g><g><path d="m155.283 44.763h-23.57c-1.105 0-2-.896-2-2v-21.52c0-7.602 6.184-13.785 13.785-13.785 7.602 0 13.785 6.184 13.785 13.785v21.52c0 1.104-.895 2-2 2zm-21.57-4h19.57v-19.52c0-5.396-4.39-9.785-9.785-9.785-5.396 0-9.785 4.39-9.785 9.785z" fill="#41b3a1" data-original="#690589" style="" class=""/></g><g><path d="m238.243 133.056h-13.872c7.598 0 13.757 6.159 13.757 13.757 0 7.598-6.159 13.757-13.757 13.757h13.872c7.598 0 13.757-6.159 13.757-13.757 0-7.598-6.159-13.757-13.757-13.757z" fill="#85cdc9" data-original="#d6d1cf" style="" class=""/></g><g><path d="m50.156 160.57h13.872c-7.598 0-13.757-6.159-13.757-13.757 0-7.598 6.159-13.757 13.757-13.757h-13.872c-7.598 0-13.757 6.159-13.757 13.757.001 7.597 6.16 13.757 13.757 13.757z" fill="#ffffff" data-original="#ffffff" style="" class=""/></g><g><path d="m144.2 32.407c-49.285 0-89.239 39.953-89.239 89.238v11.411h178.477v-11.411c0-49.285-39.953-89.238-89.238-89.238z" fill="#98dfdb" data-original="#f4efed" style="" class=""/></g><g><path d="m144.2 32.407c-2.09 0-4.156.098-6.211.239 46.384 3.192 83.028 41.804 83.028 88.999v11.411h12.421v-11.411c0-49.285-39.953-89.238-89.238-89.238z" fill="#85cdc9" data-original="#d6d1cf" style="" class=""/></g><g><path d="m144.2 32.407c2.09 0 4.156.098 6.21.239-46.384 3.192-83.028 41.804-83.028 88.999v11.411h-12.42v-11.411c0-49.285 39.953-89.238 89.238-89.238z" fill="#ffffff" data-original="#ffffff" style="" class=""/></g><g><path d="m233.439 135.056h-178.477c-1.104 0-2-.895-2-2v-11.41c0-50.309 40.929-91.238 91.237-91.238h.001c50.309 0 91.238 40.93 91.238 91.238v11.41c.001 1.104-.895 2-1.999 2zm-176.477-4h174.477v-9.41c0-48.104-39.135-87.238-87.238-87.238s-87.238 39.135-87.238 87.238v9.41z" fill="#41b3a1" data-original="#690589" style="" class=""/></g><g><path d="m69.162 101.898c-.16 0-.322-.019-.484-.059-1.072-.267-1.725-1.352-1.459-2.424 1.054-4.239 2.53-8.399 4.391-12.366.469-1.002 1.662-1.432 2.659-.962 1 .469 1.431 1.659.962 2.659-1.749 3.732-3.139 7.646-4.129 11.634-.227.911-1.043 1.518-1.94 1.518z" fill="#41b3a1" data-original="#690589" style="" class=""/></g><g><path d="m238.243 162.569h-188.087c-8.688 0-15.757-7.068-15.757-15.757s7.068-15.757 15.757-15.757h188.087c8.688 0 15.757 7.068 15.757 15.757s-7.068 15.757-15.757 15.757zm-188.087-27.513c-6.483 0-11.757 5.274-11.757 11.757s5.274 11.757 11.757 11.757h188.087c6.482 0 11.757-5.274 11.757-11.757s-5.274-11.757-11.757-11.757z" fill="#41b3a1" data-original="#690589" style="" class=""/></g><g><g><path d="m40.022 71.98h-30.095c-4.371 0-7.927-3.555-7.927-7.926s3.556-7.927 7.927-7.927h30.096c4.371 0 7.927 3.556 7.927 7.927-.001 4.371-3.556 7.926-7.928 7.926zm-30.095-11.853c-2.165 0-3.927 1.762-3.927 3.927s1.762 3.927 3.927 3.927h30.096c2.165 0 3.927-1.762 3.927-3.927s-1.762-3.927-3.927-3.927z" fill="#41b3a1" data-original="#690589" style="" class=""/></g></g><g><g><path d="m40.022 95.83h-18.242c-4.371 0-7.927-3.556-7.927-7.927s3.556-7.927 7.927-7.927h18.242c4.371 0 7.927 3.556 7.927 7.927s-3.555 7.927-7.927 7.927zm-18.242-11.853c-2.165 0-3.927 1.762-3.927 3.927s1.762 3.927 3.927 3.927h18.242c2.165 0 3.927-1.762 3.927-3.927s-1.762-3.927-3.927-3.927z" fill="#41b3a1" data-original="#690589" style="" class=""/></g></g><g><g><path d="m40.022 119.679h-30.095c-4.371 0-7.927-3.556-7.927-7.927s3.556-7.927 7.927-7.927h30.096c4.371 0 7.927 3.556 7.927 7.927-.001 4.371-3.556 7.927-7.928 7.927zm-30.095-11.854c-2.165 0-3.927 1.762-3.927 3.927s1.762 3.927 3.927 3.927h30.096c2.165 0 3.927-1.762 3.927-3.927s-1.762-3.927-3.927-3.927z" fill="#41b3a1" data-original="#690589" style="" class=""/></g></g></g></g></svg>
