<?xml version="1.0"?>
<svg xmlns="http://www.w3.org/2000/svg" xmlns:xlink="http://www.w3.org/1999/xlink" xmlns:svgjs="http://svgjs.com/svgjs" version="1.1" width="512" height="512" x="0" y="0" viewBox="0 0 512 512" style="enable-background:new 0 0 512 512" xml:space="preserve" class=""><g><g xmlns="http://www.w3.org/2000/svg"><g><path d="m217.71 36.906c-6.232 0-12.35.942-18.186 2.774l-17.437-39.68h-9.827c-25.467 0-48.99 12.684-62.984 33.945l-19.239 27.217 52.381 79.839 23.55-13.257 16.103 102.888-1.891 17.631c-17.39 28.86-36.654 61.425-39.679 94.983-3.025 33.559 1.692 67.95 13.642 99.454l26.284 69.3h74.092l34.674-277.444-34.674-185.249c-10.458-7.93-23.459-12.401-36.809-12.401z" fill="#41b3a1" data-original="#19a995" style="" class=""/><path d="m328.778 248.262-1.847-17.644 16.018-102.943 23.671 13.325 55.343-76.867-22.201-30.189c-13.993-21.26-37.517-33.944-62.984-33.944h-9.839l-17.413 39.744c-5.895-1.874-12.081-2.838-18.385-2.838-13.351 0-26.164 4.472-36.622 12.402v462.692h74.105l26.271-69.266c11.953-31.515 16.669-65.917 13.639-99.486-3.031-33.57-22.352-66.121-39.756-94.986z" fill="#85cdc9" data-original="#0d7579" style="" class=""/></g><g><path d="m180.182 218.199v30.063h74.337l12.215-14.367-12.215-15.696z" fill="#e8a97c" data-original="#fc445f" style="" class=""/></g><path d="m254.519 218.199h74.307v30.063h-74.307z" fill="#e37d5f" data-original="#e1105a" style="" class=""/></g></g></svg>
