<?xml version="1.0"?>
<svg xmlns="http://www.w3.org/2000/svg" xmlns:xlink="http://www.w3.org/1999/xlink" xmlns:svgjs="http://svgjs.com/svgjs" version="1.1" width="512" height="512" x="0" y="0" viewBox="0 0 512 512" style="enable-background:new 0 0 512 512" xml:space="preserve" class=""><g><g xmlns="http://www.w3.org/2000/svg"><path d="m340.178 51.204 6.292 6.291c2.929 2.929 6.768 4.394 10.607 4.394s7.678-1.465 10.607-4.394c5.858-5.858 5.858-15.356 0-21.213l-31.897-31.895c-5.974-5.977-15.501-5.721-21.218 0l-31.896 31.895c-5.858 5.858-5.858 15.356 0 21.213 5.858 5.859 15.355 5.859 21.213 0l6.292-6.291v51.66c10.55 5.039 20.606 11.125 30.001 18.203v-69.863z" fill="#41b3a1" data-original="#000000" style="" class=""/><circle cx="235.176" cy="263.38" r="15" fill="#41b3a1" data-original="#000000" style="" class=""/><path d="m450.363 353.583-41.421-71c5.745-49.391-9.224-98.683-41.477-136.003-8.242-9.537-17.402-18.066-27.287-25.513v142.313c0 57.898-47.103 105.002-105.002 105.002s-105.002-47.103-105.002-105.002 47.103-105.002 105.002-105.002c12.135 0 24.042 2.064 35.391 6.138 7.798 2.798 11.85 11.387 9.052 19.185-2.798 7.797-11.389 11.854-19.185 9.052-8.089-2.902-16.587-4.374-25.258-4.374-41.356 0-75.001 33.645-75.001 75.001s33.646 75.001 75.001 75.001 75.001-33.645 75.001-75.001v-160.516c-23.375-11.164-49.187-17.157-75.711-17.157-96.888 0-175.712 78.824-175.712 175.712 0 46.288 18.083 90.316 50.418 123.205v111.553c0 8.252 6.665 14.954 14.917 15l147.687.823h.083c8.282 0 15-6.72 15-15v-22.113h59.382c21.491 0 38.975-17.473 38.975-38.951v-50.782h47.017c16.087 0 26.31-17.492 18.13-31.571zm-215.187-45.202c-24.813 0-45.001-20.187-45.001-45.001s20.187-45.001 45.001-45.001 45.001 20.187 45.001 45.001-20.187 45.001-45.001 45.001z" fill="#41b3a1" data-original="#000000" style="" class=""/></g></g></svg>
