<?xml version="1.0"?>
<svg xmlns="http://www.w3.org/2000/svg" xmlns:xlink="http://www.w3.org/1999/xlink" xmlns:svgjs="http://svgjs.com/svgjs" version="1.1" width="512" height="512" x="0" y="0" viewBox="0 0 375.326 375.326" style="enable-background:new 0 0 512 512" xml:space="preserve" class=""><g>
<g xmlns="http://www.w3.org/2000/svg">
	<rect x="290.438" y="146.226" style="" width="69.5" height="217.5" fill="#e8a97c" data-original="#ed664c" class=""/>
	<rect x="153.838" y="228.126" style="" width="69.5" height="135.6" fill="#e8a97c" data-original="#ed664c" class=""/>
	<rect x="17.138" y="278.926" style="" width="69.5" height="84.7" fill="#e8a97c" data-original="#ed664c" class=""/>
</g>
<path xmlns="http://www.w3.org/2000/svg" d="M231.538,229.326c0-5.5-4.5-10-10-10h-69c-5.5,0-10,4.5-10,10v136c0,5.5,4.5,10,10,10h69c5.5,0,10-4.5,10-10V229.326z   M162.538,239.326h50v115h-50V239.326z" fill="#41b3a1" data-original="#000000" style="" class=""/>
<path xmlns="http://www.w3.org/2000/svg" d="M368.538,147.326c0-5.5-4.5-10-10-10h-69c-5.5,0-10,4.5-10,10v217c0,5.5,4.5,10,10,10h69c5.5,0,10-4.5,10-10V147.326z   M299.538,157.326h49v197h-49V157.326z" fill="#41b3a1" data-original="#000000" style="" class=""/>
<path xmlns="http://www.w3.org/2000/svg" d="M95.538,280.326c0-5.5-4.5-10-10-10h-69c-5.5,0-10,4.5-10,10v85c0,5.5,4.5,10,10,10h69c5.5,0,10-4.5,10-10V280.326z   M26.538,290.326h49v64h-49V290.326z" fill="#41b3a1" data-original="#000000" style="" class=""/>
<path xmlns="http://www.w3.org/2000/svg" d="M363.638,6.826l-94.9-6.8c-5.5-0.4-10.3,3.8-10.7,9.3c-0.4,5.5,3.8,10.3,9.3,10.7l68.3,4.9l-125.2,97.8l-94.9-74.8  c-3.9-3.1-9.5-2.8-13.1,0.6l-97.1,93.2c-4,3.8-4.1,10.2-0.3,14.1c2,2,4.6,3.1,7.2,3.1c2.5,0,5-0.9,6.9-2.8l90.9-87.2l94.3,74.3  c3.6,2.9,8.7,2.9,12.3,0l134.7-105.3l-5.1,66.1c-0.4,5.5,3.7,10.3,9.2,10.7c0.3,0,0.5,0,0.8,0c5.2,0,9.6-4,10-9.2l6.8-88.1  c0.2-2.7-0.7-5.3-2.4-7.3S366.338,6.926,363.638,6.826z" fill="#41b3a1" data-original="#000000" style="" class=""/>
<g xmlns="http://www.w3.org/2000/svg">
</g>
<g xmlns="http://www.w3.org/2000/svg">
</g>
<g xmlns="http://www.w3.org/2000/svg">
</g>
<g xmlns="http://www.w3.org/2000/svg">
</g>
<g xmlns="http://www.w3.org/2000/svg">
</g>
<g xmlns="http://www.w3.org/2000/svg">
</g>
<g xmlns="http://www.w3.org/2000/svg">
</g>
<g xmlns="http://www.w3.org/2000/svg">
</g>
<g xmlns="http://www.w3.org/2000/svg">
</g>
<g xmlns="http://www.w3.org/2000/svg">
</g>
<g xmlns="http://www.w3.org/2000/svg">
</g>
<g xmlns="http://www.w3.org/2000/svg">
</g>
<g xmlns="http://www.w3.org/2000/svg">
</g>
<g xmlns="http://www.w3.org/2000/svg">
</g>
<g xmlns="http://www.w3.org/2000/svg">
</g>
</g></svg>
