<?xml version="1.0"?>
<svg xmlns="http://www.w3.org/2000/svg" xmlns:xlink="http://www.w3.org/1999/xlink" xmlns:svgjs="http://svgjs.com/svgjs" version="1.1" width="512" height="512" x="0" y="0" viewBox="-90 0 512 512.00066" style="enable-background:new 0 0 512 512" xml:space="preserve" class=""><g><path xmlns="http://www.w3.org/2000/svg" d="m307.222656 481.988281h-42.128906l-84.367188-359.589843c-1.589843-6.785157-7.640624-11.582032-14.609374-11.582032s-13.019532 4.796875-14.609376 11.582032l-84.367187 359.589843h-42.046875c-8.289062 0-15.007812 6.71875-15.007812 15.003907 0 8.289062 6.71875 15.007812 15.007812 15.007812h282.128906c8.289063 0 15.007813-6.71875 15.007813-15.007812 0-8.285157-6.71875-15.003907-15.007813-15.003907zm-101.28125-120.71875-57.386718-34.214843 43.394531-25.429688zm-39.824218-169.742187 18.65625 79.519531-43.257813 25.347656zm-37.242188 158.738281 70.246094 41.878906-92.972656 54.996094zm-22.6875 131.722656 112.46875-66.527343 15.605469 66.527343zm0 0" fill="#41b3a1" data-original="#d8e6eb" style="" class=""/><path xmlns="http://www.w3.org/2000/svg" d="m307.222656 481.988281h-42.128906l-84.367188-359.589843c-1.582031-6.75-7.582031-11.527344-14.503906-11.574219v81.144531l18.550782 79.074219-18.550782 10.871093v34.789063l25.726563-15.074219 13.992187 59.640625-39.71875-23.683593v34.945312l32.894532 19.613281-32.894532 19.460938v34.871093l52.429688-31.015624 15.609375 66.527343h-68.039063v30.011719h141c8.289063 0 15.007813-6.71875 15.007813-15.007812 0-8.285157-6.71875-15.003907-15.007813-15.003907zm0 0" fill="#62bfb0" data-original="#b5c3ce" style="" class=""/><path xmlns="http://www.w3.org/2000/svg" d="m166.117188 160.761719c-25.949219 0-47.0625-21.113281-47.0625-47.066407 0-25.949218 21.113281-47.0625 47.0625-47.0625 25.953124 0 47.0625 21.113282 47.0625 47.0625 0 25.953126-21.109376 47.066407-47.0625 47.066407zm0 0" fill="#e8a97c" data-original="#4895ff" style="" class=""/><path xmlns="http://www.w3.org/2000/svg" d="m92.933594 183.75c-4.554688 0-9.054688-2.066406-12.003906-5.988281-13.800782-18.351563-21.402344-41.101563-21.402344-64.0625 0-24.566407 8.574218-48.558594 24.140625-67.554688 5.25-6.410156 14.707031-7.351562 21.117187-2.097656 6.410156 5.25 7.351563 14.707031 2.097656 21.117187-11.183593 13.652344-17.34375 30.886719-17.34375 48.535157 0 16.492187 5.460938 32.839843 15.375 46.023437 4.980469 6.625 3.652344 16.03125-2.972656 21.011719-2.699218 2.03125-5.867187 3.015625-9.007812 3.015625zm0 0" fill="#62bfb0" data-original="#bdfdff" style="" class=""/><path xmlns="http://www.w3.org/2000/svg" d="m48.875 224.027344c-4.363281 0-8.6875-1.894532-11.652344-5.542969-24.003906-29.523437-37.222656-66.738281-37.222656-104.789063 0-39.8125 14.320312-78.339843 40.320312-108.488281 5.414063-6.277343 14.890626-6.976562 21.164063-1.566406 6.277344 5.414063 6.976563 14.890625 1.566406 21.167969-21.304687 24.699218-33.035156 56.265625-33.035156 88.886718 0 31.171876 10.828125 61.664063 30.496094 85.855469 5.226562 6.429688 4.253906 15.882813-2.179688 21.109375-2.78125 2.265625-6.128906 3.367188-9.457031 3.367188zm0 0" fill="#62bfb0" data-original="#bdfdff" style="" class=""/><path xmlns="http://www.w3.org/2000/svg" d="m239.339844 183.75c-3.140625 0-6.304688-.980469-9.007813-3.015625-6.621093-4.980469-7.953125-14.390625-2.972656-21.011719 9.914063-13.183594 15.375-29.53125 15.375-46.023437 0-17.648438-6.160156-34.882813-17.34375-48.535157-5.253906-6.410156-4.3125-15.867187 2.097656-21.117187 6.410157-5.253906 15.863281-4.3125 21.117188 2.097656 15.570312 19 24.144531 42.992188 24.144531 67.554688 0 22.960937-7.601562 45.710937-21.402344 64.0625-2.949218 3.921875-7.449218 5.988281-12.007812 5.988281zm0 0" fill="#62bfb0" data-original="#76e2f8" style="" class=""/><path xmlns="http://www.w3.org/2000/svg" d="m283.398438 224.027344c-3.324219 0-6.671876-1.101563-9.457032-3.363282-6.429687-5.226562-7.40625-14.679687-2.175781-21.109374 19.664063-24.191407 30.496094-54.683594 30.496094-85.859376 0-32.617187-11.730469-64.183593-33.035157-88.886718-5.414062-6.277344-4.714843-15.75 1.5625-21.164063 6.277344-5.414062 15.753907-4.714843 21.167969 1.5625 26 30.148438 40.320313 68.679688 40.320313 108.492188 0 38.046875-13.222656 75.261719-37.226563 104.789062-2.960937 3.644531-7.289062 5.539063-11.652343 5.539063zm0 0" fill="#62bfb0" data-original="#76e2f8" style="" class=""/><path xmlns="http://www.w3.org/2000/svg" d="m166.222656 66.636719v94.121093c25.902344-.058593 46.957032-21.144531 46.957032-47.0625 0-25.914062-21.054688-47.003906-46.957032-47.058593zm0 0" fill="#e37d5f" data-original="#005fe4" style="" class=""/></g></svg>
