<?xml version="1.0"?>
<svg xmlns="http://www.w3.org/2000/svg" xmlns:xlink="http://www.w3.org/1999/xlink" xmlns:svgjs="http://svgjs.com/svgjs" version="1.1" width="512" height="512" x="0" y="0" viewBox="0 0 512 512" style="enable-background:new 0 0 512 512" xml:space="preserve" class=""><g><g xmlns="http://www.w3.org/2000/svg"><g><path d="m256 202c-82.448 0-150 67.044-150 150 0 82.71 67.29 150 150 150s150-67.29 150-150c0-82.683-67.209-150-150-150z" fill="#e8a97c" data-original="#aaf9dd" style="" class=""/><path d="m405.83 344.98-1.6.08-42.85-7.88c0-11.95-9.69-21.64-21.65-21.64-11.95 0-21.65-9.69-21.65-21.65v-12.68c0-5.74 2.28-11.25 6.34-15.3l36.36-21.15.01-.01c26.32 25.74 43.23 61.05 45.04 100.23z" fill="#85cdc9" data-original="#eefaff" style="" class=""/><path d="m307.83 392.19-3.76-21.32-18.8 3.31c-14.61 2.58-29.41-3.32-38.25-15.23-11.3-15.24-32.38-20.64-50.31-11.04-1.88-.93-3.62-1.93-5.24-3-22.96-15.16-20.49-43.74-1.47-58.15 3.95-3 6.41 3.85 7.4 7.75l-1.15-6.51c-2.08-11.77 5.78-23 17.56-25.08l12.86-2.26c8.64-1.53 39.56-30.63 59.45-55.62-9.74-1.99-19.81-3.04-30.12-3.04-57.29 0-107.17 32.28-132.43 79.6 1.91 4.79 2.21 10.29.37 15.71-3.51 10.33 1.93 21.6 11.93 25.98l54.1 23.74 16.03 21.61c7.65 10.31 7.84 24.35.48 34.87l-5.24 7.47 14.96 10.48c6.48 4.53 10.89 11.45 12.26 19.24 3.54 20.04 6.48 9.44 18.6 25.79l10.4 16.51c4.65-31.33 24.71-32.41 43.04-58.24 6.47-9.11 9.42-20.7 7.33-32.57z" fill="#85cdc9" data-original="#eefaff" style="" class=""/><path d="m346 10c-49.71 0-90 40.29-90 90 0-49.71-40.29-90-90-90h-30c0 49.71 40.29 90 90 90 16.57 0 30 13.43 30 30 0-16.57 13.43-30 30-30 49.71 0 90-40.29 90-90z" fill="#e8a97c" data-original="#aaf9dd" style="" class=""/></g><g><circle cx="363" cy="457" r="10" fill="#41b3a1" data-original="#000000" style="" class=""/><path d="m384.803 429.456c4.906 2.535 10.94.609 13.473-4.299 11.595-22.466 17.724-47.762 17.724-73.157 0-77.401-55.074-141.871-127.878-156.758-.067-.014-.258-.05-.287-.055-7.182-1.454-14.492-2.405-21.835-2.863v-62.324c0-11.028 8.972-20 20-20 55.141 0 100-44.859 100-100 0-5.522-4.478-10-10-10h-30c-39.533 0-73.78 23.06-90 56.435-16.22-33.375-50.467-56.435-90-56.435h-30c-5.522 0-10 4.478-10 10 0 55.141 44.859 100 100 100 11.028 0 20 8.972 20 20v62.325c-85.072 5.296-150 76.085-150 159.675 0 88.225 71.775 160 160 160 26.438 0 52.658-6.616 75.826-19.134 4.858-2.625 6.669-8.692 4.044-13.552-2.626-4.859-8.692-6.668-13.552-4.044-18.472 9.981-39.172 15.654-60.216 16.579 2.78-1.459 4.772-4.17 5.249-7.382 2.363-15.918 9.08-21.771 19.247-30.63 6.79-5.917 14.485-12.622 22.055-23.288 8.312-11.703 11.517-25.941 9.024-40.096l-3.76-21.32c-.959-5.438-6.146-9.071-11.581-8.112l-18.807 3.311c-10.939 1.932-21.854-2.414-28.478-11.338-13.522-18.238-37.137-24.627-57.894-16.312-.061-.039-.12-.078-.18-.117-7.468-4.932-11.722-11.986-11.977-19.865-.167-5.156 1.373-10.263 4.268-14.706.999 1.813 2.641 3.548 5.447 4.49 3.504 1.177 7.329.313 9.984-2.148 4.286-3.976 3.258-8.837 2.484-11.915-.315-4.102-3.104-9.226.838-14.859 1.785-2.55 4.457-4.252 7.516-4.793l12.874-2.262c13.729-2.432 44.974-34.604 61.515-54.337 19.712 4.918 38.053 14.086 53.892 26.887-25.631 15.036-24.856 14.169-26.464 15.775-5.896 5.881-9.357 14.038-9.357 22.379v12.68c0 17.452 14.278 31.65 31.73 31.65 6.424 0 11.649 5.222 11.649 11.64 0 4.825 3.445 8.962 8.191 9.835l36.404 6.694c-.258 21.913-5.45 42.858-15.471 62.274-2.529 4.908-.604 10.94 4.303 13.472zm-158.803-339.456c-40.726 0-74.44-30.592-79.378-70h19.378c42.531 0 77.418 33.359 79.863 75.289-5.855-3.363-12.639-5.289-19.863-5.289zm120-70.01h19.378c-4.938 39.408-38.652 70.01-79.378 70.01-7.224 0-14.008 1.926-19.863 5.289 2.445-41.93 37.332-75.299 79.863-75.299zm-107.01 344.92c11.17 15.05 29.574 22.373 48.013 19.118l8.955-1.576 2.023 11.473c1.557 8.842-.444 17.736-5.637 25.048-6.193 8.728-12.646 14.35-18.885 19.786-6.788 5.915-13.72 11.954-18.851 21.131-6.82-9.013-11.384-11.004-14.334-13.104-.259-.503-.991-2.294-1.967-7.818-1.843-10.479-7.659-19.607-16.371-25.698l-6.772-4.744c9.339-13.981 8.919-32.295-1.134-45.844l-6.294-8.484c11.538-3.181 23.915.816 31.254 10.712zm-41.02 9.689c5.09 6.859 5.217 16.175.324 23.169l-5.24 7.471c-3.172 4.522-2.075 10.763 2.449 13.933l14.967 10.484c4.334 3.03 7.226 7.567 8.143 12.784 2.457 13.907 5.589 17.877 12.134 22.003 2.126 1.34 4.323 2.726 8.062 7.709l10.191 16.179c1.012 1.607 2.437 2.834 4.066 3.633-75.847-1.57-137.066-63.749-137.066-139.964 0-9.976 1.079-19.919 3.182-29.627 3.19 4.273 7.489 7.805 12.67 10.074l51.669 22.673zm26.643-123.731-12.543 2.204c-8.326 1.471-15.582 6.094-20.43 13.02-2.376 3.394-4.03 7.144-4.93 11.063-.952.428-1.875.97-2.749 1.634-12.344 9.353-19.428 23.767-18.948 38.559.092 2.82.461 5.592 1.092 8.289l-26.223-11.507c-5.416-2.372-8.26-8.347-6.472-13.605 1.957-5.767 2.263-11.918.949-17.756 24.981-43.753 71.214-70.769 121.641-70.769 3.591 0 7.185.14 10.767.415-17.538 19.56-36.555 36.308-42.154 38.453zm115.117 54.672c-6.424 0-11.73-5.227-11.73-11.65v-12.68c0-2.7 1.041-5.345 2.746-7.411l28.309-16.467c19.458 21.161 31.835 47.512 35.663 75.811l-24.51-4.507c-3.738-13.31-15.986-23.096-30.478-23.096z" fill="#41b3a1" data-original="#000000" style="" class=""/></g></g></g></svg>
